<svg width="104" height="104" viewBox="0 0 104 104" fill="none" xmlns="http://www.w3.org/2000/svg">
<rect width="104" height="104" rx="4" fill="#E9ECEC"/>
<path d="M71.0004 57.7695V60.4674C71.0004 60.9151 70.9809 61.3667 70.9418 61.8144C70.3947 67.9747 66.1156 72.0001 59.9412 72.0001H43.0591C39.9328 72.0001 37.295 70.9854 35.3997 69.1458C34.6572 68.4635 34.0319 67.6619 33.5435 66.743C34.1883 65.9591 34.9112 65.1008 35.6146 64.2406C36.8065 62.8134 37.9594 61.4039 38.6823 60.487C39.757 59.1575 42.5902 55.658 46.5176 57.3003C47.3187 57.6326 48.0221 58.1018 48.6669 58.5124C50.2496 59.5681 50.914 59.8809 52.0277 59.2748C53.2587 58.6101 54.0598 57.3003 54.9 55.9317C55.3494 55.2064 55.7988 54.5046 56.2873 53.8594C58.4171 51.0833 61.6997 50.3404 64.4352 51.9826C65.803 52.8037 66.9753 53.8399 68.0695 54.8936C68.304 55.1282 68.5385 55.3452 68.7534 55.5603C69.0465 55.8535 70.0235 56.8311 71.0004 57.7695" fill="#96A6A3"/>
<path opacity="0.4" d="M59.9608 33H43.0593C36.4354 33 32 37.6334 32 44.5327V60.4681C32 62.8708 32.5471 65.0037 33.5436 66.7437C34.1884 65.9598 34.9114 65.1015 35.6148 64.2393C36.8067 62.8141 37.9595 61.4045 38.6825 60.4876C39.7571 59.1582 42.5903 55.6587 46.5178 57.301C47.3189 57.6333 48.0223 58.1025 48.6671 58.5131C50.2498 59.5688 50.9141 59.8816 52.0279 59.2736C53.2588 58.6108 54.06 57.301 54.9001 55.9305C55.3496 55.2071 55.799 54.5053 56.2874 53.8601C58.4172 51.084 61.6998 50.3411 64.4354 51.9833C65.8031 52.8044 66.9755 53.8406 68.0697 54.8943C68.3042 55.1289 68.5386 55.3459 68.7536 55.561C69.0467 55.8523 70.0236 56.8298 71.0006 57.7702V44.5327C71.0006 37.6334 66.5652 33 59.9608 33" fill="#96A6A3"/>
<path d="M50.4364 46.2529C50.4364 48.9997 48.1484 51.2871 45.4031 51.2871C42.6598 51.2871 40.3717 48.9997 40.3717 46.2529C40.3717 43.5081 42.6598 41.2188 45.4031 41.2188C48.1484 41.2188 50.4364 43.5081 50.4364 46.2529" fill="#96A6A3"/>
</svg>
