<svg xmlns="http://www.w3.org/2000/svg" width="17.975" height="17.975" viewBox="0 0 17.975 17.975">
  <g id="Icon_ionic-ios-add-circle-outline" data-name="Icon ionic-ios-add-circle-outline" transform="translate(-3.375 -3.375)">
    <path id="Path_86" data-name="Path 86" d="M19.024,14.422H15.8V11.2a.691.691,0,0,0-1.383,0v3.219H11.2a.662.662,0,0,0-.691.691.669.669,0,0,0,.691.691h3.219v3.219a.67.67,0,0,0,.691.691.688.688,0,0,0,.691-.691V15.8h3.219a.691.691,0,0,0,0-1.383Z" transform="translate(-2.751 -2.751)" fill="#fff"/>
    <path id="Path_87" data-name="Path 87" d="M12.362,4.585a7.774,7.774,0,1,1-5.5,2.277,7.726,7.726,0,0,1,5.5-2.277m0-1.21a8.987,8.987,0,1,0,8.987,8.987,8.986,8.986,0,0,0-8.987-8.987Z" fill="#fff"/>
  </g>
</svg>
