<svg xmlns="http://www.w3.org/2000/svg" width="20" height="18.261" viewBox="0 0 20 18.261">
  <path id="Path_4990" data-name="Path 4990" d="M2.609,3.609V1H4.348V3.609H6.957V5.348H4.348V7.957H2.609V5.348H0V3.609ZM5.217,8.826V6.217H7.826V3.609h6.087L15.5,5.348h2.757A1.744,1.744,0,0,1,20,7.087V17.522a1.744,1.744,0,0,1-1.739,1.739H4.348a1.744,1.744,0,0,1-1.739-1.739v-8.7ZM11.3,16.652A4.348,4.348,0,1,0,6.957,12.3,4.349,4.349,0,0,0,11.3,16.652ZM8.522,12.3A2.783,2.783,0,1,0,11.3,9.522,2.78,2.78,0,0,0,8.522,12.3Z" transform="translate(0 -1)" fill="#60a053"/>
</svg>
