<svg xmlns="http://www.w3.org/2000/svg" width="37.585" height="30" viewBox="0 0 37.585 30">
  <path id="Path_98" data-name="Path 98" d="M50.473,35.177c0-3.892.042-7.5-.024-11.11A3.142,3.142,0,0,1,51.7,21.32c4.073-3.4,8.078-6.887,12.109-10.339,2.592-2.22,2.593-2.219,2.18-5.8H28.761c-.269,2.038-.436,3.826,1.627,5.444,4.413,3.462,8.6,7.216,12.81,10.928a3.439,3.439,0,0,1,1.013,2.178c.131,2.289-.013,4.594.09,6.886a2.343,2.343,0,0,0,.919,1.64C46.839,33.277,48.564,34.133,50.473,35.177Z" transform="translate(-28.604 -5.177)" fill="#60a053"/>
</svg>
