<svg xmlns="http://www.w3.org/2000/svg" width="20" height="15.964" viewBox="0 0 20 15.964">
  <path id="Path_108" data-name="Path 108" d="M40.241,21.141c0-2.071.022-3.992-.013-5.912a1.672,1.672,0,0,1,.664-1.462c2.167-1.81,4.3-3.665,6.444-5.5,1.379-1.182,1.38-1.181,1.16-3.088H28.687c-.143,1.084-.232,2.036.866,2.9,2.348,1.842,4.576,3.84,6.817,5.815a1.83,1.83,0,0,1,.539,1.159c.07,1.218-.007,2.445.048,3.664a1.247,1.247,0,0,0,.489.873C38.307,20.13,39.225,20.586,40.241,21.141Z" transform="translate(-28.604 -5.177)" fill="#60a053"/>
</svg>
