<svg xmlns="http://www.w3.org/2000/svg" width="11.707" height="15.22" viewBox="0 0 11.707 15.22">
  <path id="Icon_ionic-ios-lock" data-name="Icon ionic-ios-lock" d="M16.994,8.643h-.878V6.935a3.512,3.512,0,1,0-7.024-.048V8.643H8.213A1.468,1.468,0,0,0,6.75,10.107v7.024a1.468,1.468,0,0,0,1.463,1.463h8.781a1.468,1.468,0,0,0,1.463-1.463V10.107A1.468,1.468,0,0,0,16.994,8.643Zm-3.878,4.566v2.517a.525.525,0,0,1-.487.527.513.513,0,0,1-.538-.512V13.209a1.171,1.171,0,1,1,1.024,0Zm1.976-4.566H10.116V6.887a2.488,2.488,0,0,1,4.976,0Z" transform="translate(-6.75 -3.374)" fill="#646464"/>
</svg>
