<svg xmlns="http://www.w3.org/2000/svg" width="21.268" height="18" viewBox="0 0 21.268 18">
  <g id="Icon_ionic-ios-log-out" data-name="Icon ionic-ios-log-out" transform="translate(-3.375 -5.625)">
    <path id="Path_94" data-name="Path 94" d="M16.875,20.557a.718.718,0,0,0-.716.716.923.923,0,0,1-.92.92H5.727a.923.923,0,0,1-.92-.92V7.977a.923.923,0,0,1,.92-.92h9.511a.923.923,0,0,1,.92.92.716.716,0,1,0,1.432,0,2.353,2.353,0,0,0-2.352-2.352H5.727A2.353,2.353,0,0,0,3.375,7.977v13.3a2.353,2.353,0,0,0,2.352,2.352h9.511a2.353,2.353,0,0,0,2.352-2.352A.718.718,0,0,0,16.875,20.557Z" fill="#fff"/>
    <path id="Path_95" data-name="Path 95" d="M21.907,11.038a.711.711,0,0,0-.506-.21.7.7,0,0,0-.506.21.713.713,0,0,0,0,1.012l3.334,3.283H11.122a.716.716,0,1,0,0,1.432H24.244l-3.252,3.278a.722.722,0,0,0,0,1.013l.005.005a.74.74,0,0,0,.5.2A.691.691,0,0,0,22,21.05l4.224-4.214a1,1,0,0,0,0-1.493Z" transform="translate(-1.918 -1.419)" fill="#fff"/>
  </g>
</svg>
