<svg xmlns="http://www.w3.org/2000/svg" width="27.516" height="30" viewBox="0 0 27.516 30">
  <path id="Path_99" data-name="Path 99" d="M-72.142-145h-.352c-.006-.008-.011-.018-.018-.023q-6.565-3.749-13.132-7.5a.75.75,0,0,1-.43-.7q0-6.779,0-13.558a.72.72,0,0,1,.4-.687c.64-.353,1.271-.724,1.905-1.087L-72.493-175h.352c.091.054.182.109.274.162q6.4,3.657,12.8,7.308a.913.913,0,0,1,.508.9c-.01,2.918-.005,5.837-.005,8.755,0,1.513-.008,3.026.005,4.539a.841.841,0,0,1-.509.866c-.2.095-.391.219-.586.331Z" transform="translate(86.073 175)" fill="#60a053"/>
</svg>
